<?xml version="1.0" encoding="iso-8859-1"?>
<!-- Generator: Adobe Illustrator 19.0.0, SVG Export Plug-In . SVG Version: 6.00 Build 0)  -->
<svg version="1.1" id="Capa_1" xmlns="http://www.w3.org/2000/svg" xmlns:xlink="http://www.w3.org/1999/xlink" x="0px" y="0px"
	 viewBox="0 0 512 512" style="enable-background:new 0 0 512 512;" xml:space="preserve">
<g>
	<g>
		<path d="M452,31c-22.164,0-41.559,12.079-51.948,30H15C6.716,61,0,67.716,0,76v390c0,8.284,6.716,15,15,15h437
			c33.084,0,60-26.916,60-60V91C512,57.916,485.084,31,452,31z M452,451c-5.868,0-416.543,0-422,0V91h362v330
			c0,8.284,6.716,15,15,15s15-6.716,15-15c0-16.542,13.458-30,30-30s30,13.458,30,30S468.542,451,452,451z M482,369.052
			c-8.83-5.119-19.08-8.052-30-8.052c-10.92,0-21.17,2.933-30,8.052V91c0-16.542,13.458-30,30-30s30,13.458,30,30V369.052z"/>
	</g>
</g>
<g>
	<g>
		<path d="M346,121H76c-8.284,0-15,6.716-15,15v270c0,8.284,6.716,15,15,15h150c3.979,0,7.793-1.581,10.606-4.394
			C239.42,413.793,241,409.978,241,406v-30c0-19.556,12.539-36.239,30-42.43V406c0,8.284,6.716,15,15,15h60c8.284,0,15-6.716,15-15
			V136C361,127.716,354.284,121,346,121z M331,391h-30v-75c0-8.284-6.716-15-15-15c-41.355,0-75,33.645-75,75v15H91v-90h60v45
			c0,8.284,6.716,15,15,15s15-6.716,15-15v-60c0-8.284-6.716-15-15-15H91V151h90v60h-45c-8.284,0-15,6.716-15,15s6.716,15,15,15h60
			h60c8.284,0,15-6.716,15-15s-6.716-15-15-15h-45v-60h120V391z"/>
	</g>
</g>
<g>
</g>
<g>
</g>
<g>
</g>
<g>
</g>
<g>
</g>
<g>
</g>
<g>
</g>
<g>
</g>
<g>
</g>
<g>
</g>
<g>
</g>
<g>
</g>
<g>
</g>
<g>
</g>
<g>
</g>
</svg>
