<?xml version="1.0"?>
<svg xmlns="http://www.w3.org/2000/svg" xmlns:xlink="http://www.w3.org/1999/xlink" xmlns:svgjs="http://svgjs.com/svgjs" version="1.1" width="512" height="512" x="0" y="0" viewBox="0 0 74 74" style="enable-background:new 0 0 512 512" xml:space="preserve" class=""><g><path xmlns="http://www.w3.org/2000/svg" d="m71 43.44a1 1 0 0 1 -1-1v-2.97a1 1 0 0 1 2 0v2.97a1 1 0 0 1 -1 1z" fill="#5e5d5d" data-original="#000000" style=""/><path xmlns="http://www.w3.org/2000/svg" d="m68 72h-62a4 4 0 0 1 -4-4v-62a4 4 0 0 1 4-4h62a4 4 0 0 1 4 4v16.56a1 1 0 1 1 -2 0v-16.56a2 2 0 0 0 -2-2h-62a2 2 0 0 0 -2 2v62a2 2 0 0 0 2 2h62a2 2 0 0 0 2-2v-18.56a1 1 0 0 1 2 0v18.56a4 4 0 0 1 -4 4z" fill="#5e5d5d" data-original="#000000" style=""/><path xmlns="http://www.w3.org/2000/svg" d="m71 33.47a1 1 0 0 1 -1-1v-2.91a1 1 0 0 1 2 0v2.91a1 1 0 0 1 -1 1z" fill="#5e5d5d" data-original="#000000" style=""/><path xmlns="http://www.w3.org/2000/svg" d="m41.4 33.6a1 1 0 0 1 -.707-1.707l17.6-17.6a1 1 0 0 1 1.414 1.414l-17.6 17.6a1 1 0 0 1 -.707.293z" fill="#5e5d5d" data-original="#000000" style=""/><path xmlns="http://www.w3.org/2000/svg" d="m59 25.263a1 1 0 0 1 -1-1v-8.263h-8.263a1 1 0 1 1 0-2h9.263a1 1 0 0 1 1 1v9.263a1 1 0 0 1 -1 1z" fill="#5e5d5d" data-original="#000000" style=""/><path xmlns="http://www.w3.org/2000/svg" d="m15 60a1 1 0 0 1 -.707-1.707l17.6-17.6a1 1 0 0 1 1.414 1.414l-17.6 17.6a1 1 0 0 1 -.707.293z" fill="#5e5d5d" data-original="#000000" style=""/><path xmlns="http://www.w3.org/2000/svg" d="m24.263 60h-9.263a1 1 0 0 1 -1-1v-9.263a1 1 0 1 1 2 0v8.263h8.263a1 1 0 1 1 0 2z" fill="#5e5d5d" data-original="#000000" style=""/></g></svg>
